<svg width="15" height="15" viewBox="0 0 15 15" fill="none" xmlns="http://www.w3.org/2000/svg">
<path d="M7.5 0.849976C9.51566 0.850187 11.1494 2.48466 11.1494 4.50037C11.1492 6.12508 10.0875 7.50016 8.62012 7.97302C9.77094 8.13117 10.7613 8.55198 11.5137 9.29333C12.5019 10.2672 13 11.7159 13 13.6C12.9999 13.876 12.776 14.0999 12.5 14.1C12.2239 14.1 12.0001 13.876 12 13.6C12 11.8844 11.5482 10.7323 10.8115 10.0062C10.0733 9.27874 8.96908 8.89979 7.5 8.89978C6.03088 8.89978 4.92671 9.27873 4.18848 10.0062C3.45182 10.7323 3.00003 11.8844 3 13.6C2.99987 13.876 2.77606 14.1 2.5 14.1C2.22394 14.1 2.00013 13.876 2 13.6C2.00003 11.7159 2.49816 10.2672 3.48633 9.29333C4.23864 8.55199 5.22905 8.13118 6.37988 7.97302C4.91245 7.50008 3.84978 6.12499 3.84961 4.50037C3.84961 2.48465 5.48433 0.850174 7.5 0.849976ZM7.5 1.84998C6.03661 1.85017 4.84961 3.03693 4.84961 4.50037C4.84982 5.96362 6.03674 7.14958 7.5 7.14978C8.96325 7.14957 10.1492 5.96361 10.1494 4.50037C10.1494 3.03694 8.96338 1.85019 7.5 1.84998Z" fill="#9CA3AF"/>
</svg>
