<svg width="15" height="15" viewBox="0 0 15 15" fill="none" xmlns="http://www.w3.org/2000/svg">
<path d="M12.7559 2.0127C14.0164 2.14082 15 3.20566 15 4.5V9.5C15 10.8807 13.8807 12 12.5 12H11V14.5C11 14.7022 10.8782 14.8845 10.6914 14.9619C10.5046 15.0393 10.2895 14.9965 10.1465 14.8535L7.29297 12H2.5C1.11929 12 0 10.8807 0 9.5V4.5C1.4687e-05 3.11931 1.11929 2 2.5 2H12.5L12.7559 2.0127ZM2.5 3C1.67159 3 1.00001 3.67158 1 4.5V9.5C1 10.3284 1.67157 11 2.5 11H7.5C7.63261 11 7.75975 11.0527 7.85352 11.1465L10 13.293V11.5C10 11.2239 10.2239 11 10.5 11H12.5L12.6533 10.9922C13.4097 10.9154 14 10.2767 14 9.5V4.5C14 3.72334 13.4097 3.08461 12.6533 3.00781L12.5 3H2.5Z" fill="#9CA3AF"/>
</svg>
