<svg width="20" height="21" viewBox="0 0 20 21" fill="none" xmlns="http://www.w3.org/2000/svg">
<path d="M10.4707 2.0003C9.79545 2.00786 9.14189 2.14386 8.64039 2.38374C7.77188 2.80023 2.94444 5.21702 2.94444 5.21702C4.57588 6.033 8.83777 8.16363 9.378 8.43373C9.96639 8.72745 11.0336 8.72839 11.622 8.43373L18.1141 5.24722C18.1151 5.24722 13.7753 3.04673 12.4182 2.38374C11.8439 2.10325 11.1451 1.99274 10.4707 2.0003ZM2 6.72242V13.2748C2.00009 14.4166 2.77397 15.6567 3.8003 16.1667L9.55556 18.9999V10.4114C9.29394 10.3755 8.81416 10.2319 8.52252 10.0865L2.53125 7.10586C2.18162 6.93209 2 6.72242 2 6.72242ZM19 6.72242C19 6.72242 18.8187 6.93209 18.4692 7.10586L12.4777 10.0865C12.1858 10.2319 11.7061 10.3755 11.4444 10.4114V18.9999L17.1999 16.1667C18.2256 15.6567 19 14.4166 19 13.2748V6.72242Z" fill="#FF37C7"/>
</svg>
