<svg width="20" height="21" viewBox="0 0 20 21" fill="none" xmlns="http://www.w3.org/2000/svg">
<path d="M16 10.0499C17.6961 9.7991 19 8.29108 19 6.46824C19 4.46989 17.433 2.84991 15.5 2.84991H4.5C2.567 2.84991 1 4.46989 1 6.46824C1 8.29108 2.30385 9.7991 4 10.0499" stroke="#FF37C7" stroke-width="1.5"/>
<path d="M10.0002 5.54993V11.8499M10.0002 11.8499L11.8002 9.74993M10.0002 11.8499L8.2002 9.74993" stroke="#FF37C7" stroke-width="1.5" stroke-linecap="round" stroke-linejoin="round"/>
<path d="M3.7002 9.14993C3.7002 7.45287 3.7002 6.60434 4.2274 6.07713C4.75461 5.54993 5.60314 5.54993 7.3002 5.54993H12.7002C14.3973 5.54993 15.2458 5.54993 15.773 6.07713C16.3002 6.60434 16.3002 7.45287 16.3002 9.14993V14.5499C16.3002 16.247 16.3002 17.0955 15.773 17.6227C15.2458 18.1499 14.3973 18.1499 12.7002 18.1499H7.3002C5.60314 18.1499 4.75461 18.1499 4.2274 17.6227C3.7002 17.0955 3.7002 16.247 3.7002 14.5499V9.14993Z" stroke="#FF37C7" stroke-width="1.5"/>
<path d="M3.7002 15.45H16.3002" stroke="#FF37C7" stroke-width="1.5" stroke-linecap="round" stroke-linejoin="round"/>
</svg>
