<svg width="13" height="13" viewBox="0 0 13 13" fill="none" xmlns="http://www.w3.org/2000/svg">
<path d="M10.6914 0C11.0699 0.00015896 11.4156 0.214218 11.585 0.552734L12.9473 3.27637C12.982 3.34579 13 3.42238 13 3.5V12C13 12.5523 12.5523 13 12 13H1C0.447716 13 5.81847e-07 12.5523 0 12V3.5C0 3.42238 0.0180208 3.34579 0.0527344 3.27637L1.41504 0.552734C1.58441 0.214205 1.93007 0.000159116 2.30859 0H10.6914ZM1 12H12V4H1V12ZM8.5 6C8.77614 6 9 6.22386 9 6.5C9 6.77614 8.77614 7 8.5 7H4.5C4.22386 7 4 6.77614 4 6.5C4 6.22386 4.22386 6 4.5 6H8.5ZM1.30859 3H6V1H2.30859L1.30859 3ZM7 3H11.6914L10.6914 1H7V3Z" fill="#FF37C7"/>
</svg>
