<svg width="16" height="16" viewBox="0 0 16 16" fill="none" xmlns="http://www.w3.org/2000/svg">
<path d="M7.99967 14.6666C11.6816 14.6666 14.6663 11.6818 14.6663 7.99992C14.6663 4.31802 11.6816 1.33325 7.99967 1.33325C4.31778 1.33325 1.33301 4.31802 1.33301 7.99992C1.33301 11.6818 4.31778 14.6666 7.99967 14.6666Z" stroke="#9B9B9B" stroke-width="1.33333" stroke-linecap="round" stroke-linejoin="round"/>
<path d="M6.05957 5.99989C6.21631 5.55434 6.52567 5.17863 6.93287 4.93931C7.34008 4.7 7.81883 4.61252 8.28435 4.69237C8.74988 4.77222 9.17211 5.01424 9.47629 5.37558C9.78046 5.73691 9.94694 6.19424 9.94624 6.66656C9.94624 7.99989 7.94624 8.66656 7.94624 8.66656" stroke="#9B9B9B" stroke-width="1.33333" stroke-linecap="round" stroke-linejoin="round"/>
<path d="M8 11.3333H8.00667" stroke="#9B9B9B" stroke-width="1.33333" stroke-linecap="round" stroke-linejoin="round"/>
</svg>
