<svg width="21" height="21" viewBox="0 0 21 21" fill="none" xmlns="http://www.w3.org/2000/svg">
<path d="M10.5 11.2601C12.7507 11.2601 14.6468 11.8413 15.9785 13.1537C17.3117 14.4676 18 16.4363 18 19.0404C17.9997 19.3163 17.7759 19.5404 17.5 19.5404C17.224 19.5404 17.0003 19.3163 17 19.0404C17 16.6048 16.358 14.9327 15.2764 13.8666C14.1931 12.799 12.5891 12.2601 10.5 12.2601C8.41083 12.2601 6.80686 12.799 5.72363 13.8666C4.64197 14.9327 4 16.6047 4 19.0404C3.99973 19.3163 3.77597 19.5404 3.5 19.5404C3.22403 19.5404 3.00027 19.3163 3 19.0404C3 16.4363 3.68835 14.4676 5.02148 13.1537C6.35319 11.8414 8.24927 11.2601 10.5 11.2601ZM10.5 1.39001C13.2116 1.3901 15.4102 3.5885 15.4102 6.30017C15.41 9.01175 13.2116 11.2102 10.5 11.2103C7.78841 11.2103 5.58995 9.01176 5.58984 6.30017C5.58984 3.58849 7.78834 1.39008 10.5 1.39001ZM10.5 2.39001C8.34063 2.39008 6.58984 4.14078 6.58984 6.30017C6.58995 8.45947 8.34069 10.2103 10.5 10.2103C12.6593 10.2102 14.41 8.45946 14.4102 6.30017C14.4102 4.14079 12.6594 2.3901 10.5 2.39001Z" fill="#9CA3AF"/>
</svg>
