<svg width="16" height="16" viewBox="0 0 16 16" fill="none" xmlns="http://www.w3.org/2000/svg">
<path d="M14.6663 7.99992H13.013C12.7217 7.9993 12.4381 8.09412 12.2058 8.2699C11.9734 8.44567 11.805 8.69272 11.7263 8.97325L10.1597 14.5466C10.1496 14.5812 10.1285 14.6116 10.0997 14.6333C10.0708 14.6549 10.0357 14.6666 9.99967 14.6666C9.96361 14.6666 9.92852 14.6549 9.89967 14.6333C9.87083 14.6116 9.84977 14.5812 9.83967 14.5466L6.15967 1.45325C6.14958 1.41863 6.12852 1.38822 6.09967 1.36659C6.07083 1.34495 6.03574 1.33325 5.99967 1.33325C5.96361 1.33325 5.92852 1.34495 5.89967 1.36659C5.87083 1.38822 5.84977 1.41863 5.83967 1.45325L4.27301 7.02659C4.19465 7.30602 4.02726 7.55226 3.79625 7.72793C3.56524 7.90359 3.28322 7.99909 2.99301 7.99992H1.33301" stroke="#A1A1A1" stroke-width="1.33333" stroke-linecap="round" stroke-linejoin="round"/>
</svg>
