<svg width="20" height="21" viewBox="0 0 20 21" fill="none" xmlns="http://www.w3.org/2000/svg">
<path d="M10.0526 1.99988C8.57014 1.99988 7.36851 3.20209 7.36842 4.6914V5.64465H6.47368C5.65545 5.61163 4.3996 6.1476 3.92923 7.46708L2.89474 7.43899C2.40057 7.43899 1.99991 7.83976 2 8.33617C2 8.83257 2.40057 9.23379 2.89474 9.23379H3.78947V10.131H2.89474C2.40057 10.131 1.99991 10.5311 2 11.0281C2 11.5243 2.40057 11.9244 2.89474 11.9253H3.78947V12.8225H2.89474C2.40057 12.8225 1.99991 13.2226 2 13.7197C2 14.2158 2.40057 14.6168 2.89474 14.6168H3.78947V15.514H2.89474C2.40057 15.514 1.99991 15.9141 2 16.4112C2 16.9073 2.40057 17.3084 2.89474 17.3084H3.78947C3.78947 18.7941 4.99119 19.9999 6.47368 19.9999H12.7368C14.2193 19.9999 15.4211 18.7941 15.4211 17.3084V16.4112L16.3158 16.3825C17.7983 16.3825 18.9999 15.1803 19 13.6909V4.6914C19 3.20218 17.7982 1.9997 16.3158 1.99988H10.0526ZM16.3158 3.79423C16.81 3.79423 17.2106 4.19499 17.2105 4.6914V13.6631C17.2105 14.1593 16.81 14.5603 16.3158 14.5603L15.4211 14.5881V8.33617C15.4211 6.84964 14.2193 5.64465 12.7368 5.64465H9.15789V4.71948C9.15789 4.22308 9.55847 3.82222 10.0526 3.82231L16.3158 3.79423Z" fill="#FF37C7"/>
</svg>
