<svg width="20" height="21" viewBox="0 0 20 21" fill="none" xmlns="http://www.w3.org/2000/svg">
<path d="M4.8 1C2.70145 1 1 2.70136 1 4.8V12.4C1 14.4986 2.70145 16.2 4.8 16.2L4.82186 16.1933C5.02611 18.2957 6.84059 20 9.01609 20C9.32009 20 11.146 20 11.45 20C14.8244 20 20 14.8244 20 11.45V9.0161C20 6.84032 18.3489 5.03607 16.2048 4.82413L16.2 4.8C16.2 2.70136 14.4986 1 12.4 1H4.8ZM4.8 2.9H12.4C13.4498 2.9 14.3 3.75063 14.3 4.8C12.5083 4.8 9.67634 4.8 9.01609 4.8C6.69239 4.8 4.8 6.69212 4.8 9.0161V14.3C3.75025 14.3 2.9 13.4498 2.9 12.4V4.8C2.9 3.75063 3.75025 2.9 4.8 2.9ZM14.7161 12.4L17.9091 12.3924C17.1985 14.4653 14.4548 17.1329 12.4028 17.9024L12.4 14.7161C12.4 13.4412 13.4412 12.4 14.7161 12.4Z" fill="#FF37C7"/>
</svg>
