<svg width="20" height="21" viewBox="0 0 20 21" fill="none" xmlns="http://www.w3.org/2000/svg">
<path d="M10 0.999878C9.44801 0.999878 9.00001 1.44758 9.00001 1.99988V12.5619L6 9.59388L4.594 10.9999L9.28101 15.7189C9.67201 16.1089 10.328 16.1089 10.719 15.7189L15.406 10.9999L14 9.59388L11 12.5619V1.99988C11 1.44758 10.552 0.999778 10 0.999878ZM2 12.9999C1.448 12.9999 1 13.4479 1 13.9999V15.9999C1 18.2089 2.791 19.9999 5 19.9999H15C17.209 19.9999 19 18.2089 19 15.9999V13.9999C19 13.4479 18.552 12.9999 18 12.9999C17.448 12.9999 17 13.4479 17 13.9999V15.9999C17 17.1049 16.105 17.9999 15 17.9999H5C3.895 17.9999 3 17.1049 3 15.9999V13.9999C3 13.4479 2.552 12.9999 2 12.9999Z" fill="#FF37C7"/>
</svg>
