<svg width="15" height="16" viewBox="0 0 15 16" fill="none" xmlns="http://www.w3.org/2000/svg">
<path d="M10.5 1.5C10.7761 1.5 11 1.72386 11 2C11 2.27614 10.7761 2.5 10.5 2.5H3V13.5H10.5C10.7761 13.5 11 13.7239 11 14C11 14.2761 10.7761 14.5 10.5 14.5H3C2.44772 14.5 2 14.0523 2 13.5V2.5C2 1.94772 2.44772 1.5 3 1.5H10.5ZM11.8965 5.39648C12.0917 5.20122 12.4083 5.20122 12.6035 5.39648L14.8535 7.64648C15.0488 7.84175 15.0488 8.15825 14.8535 8.35352L12.6035 10.6035C12.4083 10.7988 12.0917 10.7988 11.8965 10.6035C11.7012 10.4083 11.7012 10.0917 11.8965 9.89648L13.293 8.5H6.5C6.22386 8.5 6 8.27614 6 8C6 7.72386 6.22386 7.5 6.5 7.5H13.293L11.8965 6.10352C11.7012 5.90825 11.7012 5.59175 11.8965 5.39648Z" fill="#C84B63"/>
</svg>
