<svg width="15" height="16" viewBox="0 0 15 16" fill="none" xmlns="http://www.w3.org/2000/svg">
<path d="M9.08594 1.5C9.48371 1.50004 9.86522 1.65818 10.1465 1.93945L12.5605 4.35352C12.8418 4.63478 13 5.01629 13 5.41406V13C13 13.8284 12.3284 14.5 11.5 14.5H3.5C2.67157 14.5 2 13.8284 2 13V3C2 2.17157 2.67157 1.5 3.5 1.5H9.08594ZM3.5 2.5C3.22386 2.5 3 2.72386 3 3V13C3 13.2761 3.22386 13.5 3.5 13.5H11.5C11.7761 13.5 12 13.2761 12 13V5.41406C12 5.28151 11.9472 5.15428 11.8535 5.06055L9.43945 2.64648C9.34572 2.55275 9.21849 2.50004 9.08594 2.5H3.5ZM10.5 10.5C10.7761 10.5 11 10.7239 11 11C11 11.2761 10.7761 11.5 10.5 11.5H4.5C4.22386 11.5 4 11.2761 4 11C4 10.7239 4.22386 10.5 4.5 10.5H10.5ZM10.5 7.5C10.7761 7.5 11 7.72386 11 8C11 8.27614 10.7761 8.5 10.5 8.5H4.5C4.22386 8.5 4 8.27614 4 8C4 7.72386 4.22386 7.5 4.5 7.5H10.5ZM7.5 4.5C7.77614 4.5 8 4.72386 8 5C8 5.27614 7.77614 5.5 7.5 5.5H4.5C4.22386 5.5 4 5.27614 4 5C4 4.72386 4.22386 4.5 4.5 4.5H7.5Z" fill="white"/>
</svg>
