<svg width="20" height="22" viewBox="0 0 20 22" fill="none" xmlns="http://www.w3.org/2000/svg">
<path d="M6.04909 1.5328C5.77513 1.49053 5.76358 1.48557 5.8925 1.46587C6.13956 1.42808 6.72294 1.47958 7.12495 1.57466C8.06347 1.79654 8.91746 2.36494 9.82905 3.37442L10.0712 3.64261L10.4177 3.58721C11.8772 3.35393 13.362 3.53933 14.6039 4.10994C14.9455 4.26692 15.4842 4.5794 15.5515 4.6597C15.5729 4.6853 15.6123 4.85003 15.639 5.02582C15.7312 5.63398 15.685 6.10014 15.498 6.44831C15.3963 6.63778 15.3906 6.69782 15.459 6.85997C15.5136 6.98936 15.6659 7.08513 15.8167 7.08492C16.1253 7.08451 16.4575 6.58831 16.6114 5.89789L16.6725 5.62364L16.7936 5.76009C17.458 6.5087 17.9797 7.52962 18.0694 8.25631L18.0927 8.44578L17.9811 8.27353C17.7889 7.97714 17.5958 7.77537 17.3485 7.61264C16.9028 7.31931 16.4315 7.21948 15.1834 7.15406C14.0561 7.09498 13.4181 6.99921 12.7855 6.79404C11.7091 6.445 11.1665 5.98015 9.888 4.31174C9.3201 3.57068 8.9691 3.16067 8.61995 2.83048C7.82657 2.08022 7.047 1.68675 6.04909 1.5328Z" fill="#FF37C7"/>
<path d="M15.8055 3.18741C15.8339 2.69083 15.9016 2.3633 16.0378 2.06418C16.0916 1.94578 16.1421 1.84888 16.1499 1.84888C16.1577 1.84888 16.1343 1.93627 16.0978 2.04306C15.9989 2.33336 15.9826 2.73042 16.0508 3.19237C16.1373 3.77852 16.1865 3.86309 16.8094 4.49625C17.1016 4.79323 17.4414 5.16779 17.5646 5.3286L17.7886 5.621L17.5646 5.41203C17.2907 5.15649 16.6607 4.65813 16.5215 4.58689C16.4282 4.53911 16.4144 4.53993 16.3568 4.59691C16.3038 4.64941 16.2926 4.7283 16.2852 5.10124C16.2738 5.68249 16.1941 6.05557 16.0019 6.42861C15.8979 6.63038 15.8815 6.58732 15.9756 6.35958C16.0459 6.18954 16.053 6.11479 16.0525 5.5521C16.0514 4.42153 15.9164 4.14973 15.125 3.68413C14.9246 3.56617 14.5942 3.39607 14.391 3.30609C14.1877 3.21611 14.0263 3.13774 14.0321 3.13188C14.0546 3.1097 14.8264 3.33375 15.137 3.4526C15.5991 3.62939 15.6753 3.6523 15.7315 3.63097C15.7691 3.61668 15.7873 3.50771 15.8055 3.18741Z" fill="#FF37C7"/>
<path d="M6.58123 5.12149C6.02507 4.35993 5.68096 3.19229 5.75546 2.31943L5.77849 2.04932L5.90509 2.0723C6.14282 2.11543 6.55273 2.26718 6.74467 2.38313C7.2714 2.7013 7.49943 3.12019 7.73142 4.19585C7.79938 4.51092 7.88853 4.86746 7.92956 4.98817C7.9956 5.18246 8.24517 5.63629 8.44807 5.93103C8.59422 6.1433 8.49714 6.24389 8.17408 6.21488C7.68069 6.17058 7.01237 5.71183 6.58123 5.12149Z" fill="#FF37C7"/>
<path d="M15.1311 10.7894C12.532 9.74852 11.6165 8.84507 11.6165 7.32069C11.6165 7.09636 11.6243 6.91281 11.6338 6.91281C11.6432 6.91281 11.7438 6.98684 11.8572 7.07734C12.3843 7.49779 12.9745 7.67736 14.6083 7.91444C15.5698 8.05396 16.1109 8.16664 16.61 8.33127C18.1963 8.85454 19.1778 9.91646 19.4119 11.3629C19.4799 11.7831 19.44 12.5713 19.3297 12.9867C19.2427 13.3147 18.977 13.9061 18.9066 13.9288C18.8871 13.9351 18.8679 13.8606 18.8629 13.7593C18.8361 13.2162 18.5602 12.6874 18.0968 12.2913C17.5699 11.841 16.862 11.4825 15.1311 10.7894Z" fill="#FF37C7"/>
<path d="M13.3065 11.2218C13.2739 11.029 13.2175 10.7829 13.181 10.6748L13.1147 10.4782L13.2378 10.6158C13.4083 10.8061 13.543 11.0496 13.6572 11.3739C13.7443 11.6215 13.7541 11.6951 13.7535 12.0973C13.7528 12.4922 13.7419 12.575 13.6615 12.7978C13.5346 13.1492 13.3771 13.3983 13.1129 13.6657C12.6381 14.1463 12.0277 14.4124 11.1469 14.5228C10.9938 14.5419 10.5475 14.5743 10.1552 14.5945C9.16642 14.6457 8.51567 14.7514 7.93094 14.9556C7.84687 14.985 7.77181 15.0028 7.76419 14.9952C7.74053 14.9718 8.13864 14.7358 8.46748 14.5782C8.93115 14.3561 9.39271 14.2348 10.4269 14.0636C10.9377 13.9789 11.4653 13.8763 11.5992 13.8354C12.8643 13.4496 13.5146 12.454 13.3065 11.2218Z" fill="#FF37C7"/>
<path d="M14.4979 13.3263C14.1525 12.588 14.0732 11.8751 14.2624 11.2103C14.2827 11.1392 14.3152 11.0811 14.3348 11.0811C14.3544 11.0811 14.4359 11.1249 14.5159 11.1784C14.675 11.285 14.9941 11.4644 15.8444 11.9255C16.9054 12.5009 17.5105 12.9464 17.9219 13.4554C18.2822 13.9012 18.5051 14.4089 18.6124 15.028C18.6732 15.3787 18.6376 16.2225 18.5471 16.5757C18.2618 17.6891 17.5987 18.5637 16.6531 19.0741C16.5145 19.1488 16.3901 19.2102 16.3767 19.2105C16.3632 19.2108 16.4137 19.0831 16.4889 18.9268C16.807 18.2654 16.8432 17.622 16.6027 16.9059C16.4554 16.4674 16.1552 15.9324 15.5489 15.0282C14.8441 13.9768 14.6713 13.6971 14.4979 13.3263Z" fill="#FF37C7"/>
<path d="M4.7354 17.3101C5.69991 16.5001 6.89999 15.9246 7.99315 15.748C8.46427 15.6719 9.24909 15.7021 9.68534 15.8132C10.3847 15.9912 11.0102 16.3898 11.3356 16.8648C11.6535 17.329 11.7899 17.7336 11.9319 18.6336C11.9879 18.9887 12.0489 19.3453 12.0673 19.426C12.174 19.8924 12.3815 20.2653 12.6387 20.4526C13.0472 20.7499 13.7506 20.7684 14.4425 20.5C14.5599 20.4544 14.6619 20.4229 14.6691 20.43C14.6941 20.4548 14.3457 20.6868 14.0999 20.8089C13.7692 20.9732 13.5062 21.0367 13.1567 21.0367C12.523 21.0367 11.9968 20.7161 11.5578 20.0623C11.4714 19.9336 11.2772 19.5482 11.1263 19.2059C10.6627 18.1543 10.4338 17.834 9.89559 17.4834C9.42722 17.1784 8.82317 17.1237 8.36875 17.3453C7.77184 17.6364 7.6053 18.3951 8.03282 18.8759C8.20274 19.067 8.5196 19.2318 8.7787 19.2639C9.26342 19.3239 9.67998 18.9571 9.67998 18.4703C9.67998 18.1543 9.55785 17.9739 9.25038 17.8359C8.83044 17.6475 8.37905 17.8678 8.38121 18.2601C8.38215 18.4274 8.4554 18.5325 8.62403 18.6084C8.73221 18.6571 8.73472 18.6609 8.64651 18.6427C8.2612 18.5632 8.17093 18.1012 8.48073 17.7945C8.85268 17.4263 9.62181 17.5888 9.88592 18.0914C9.99689 18.3025 10.0098 18.7229 9.91302 18.9768C9.69651 19.545 9.06522 19.8438 8.42481 19.6812C7.9888 19.5705 7.81127 19.4506 7.28558 18.9121C6.37212 17.9762 6.0175 17.7949 4.7006 17.5904L4.44824 17.5512L4.7354 17.3101Z" fill="#FF37C7"/>
<path fill-rule="evenodd" clip-rule="evenodd" d="M0.44926 0.55979C3.4998 4.24228 5.60086 5.76161 5.83435 6.0826C6.02713 6.34765 5.95457 6.58593 5.62431 6.77268C5.44065 6.87651 5.06307 6.98171 4.87401 6.98171C4.66018 6.98171 4.58677 6.89967 4.58677 6.89967C4.46279 6.78271 4.39296 6.80317 3.75628 5.67912C2.87236 4.31495 2.13263 3.18331 2.11245 3.16437C2.06579 3.12055 2.06659 3.12203 3.66615 5.96862C3.92459 6.56192 3.71756 6.7797 3.71756 6.86421C3.71756 7.03611 3.67041 7.12646 3.4572 7.36299C3.10178 7.75736 2.9429 8.20047 2.82821 9.11753C2.69963 10.1455 2.33809 10.8717 1.33613 12.1146C0.749626 12.8421 0.653656 12.9754 0.505663 13.2687C0.319254 13.6379 0.267998 13.8447 0.247224 14.311C0.225267 14.804 0.268031 15.1225 0.419469 15.5939C0.552047 16.0065 0.690435 16.279 1.04422 16.824C1.34953 17.2944 1.52533 17.6439 1.52533 17.7806C1.52533 17.8894 1.54621 17.8895 2.01931 17.7833C3.15151 17.529 4.07085 17.0817 4.58791 16.5337C4.9079 16.1944 4.98303 16.0071 4.98547 15.5422C4.98707 15.2381 4.97631 15.1745 4.89367 14.9995C4.75914 14.7148 4.51424 14.4781 3.97447 14.1111C3.26721 13.6302 2.96514 13.2431 2.88169 12.7107C2.81325 12.2738 2.89265 11.9656 3.28391 11.15C3.68888 10.3058 3.78924 9.94602 3.85713 9.09507C3.90097 8.5453 3.96169 8.32848 4.12051 8.15445C4.28614 7.97297 4.43525 7.91151 4.84517 7.85581C5.51345 7.765 5.93898 7.59304 6.28876 7.27246C6.5922 6.99435 6.71917 6.72638 6.73866 6.32298L6.75345 6.01722L6.58388 5.82059C5.96981 5.10846 0.0380236 0 0.000233728 0C-0.00783924 0 0.194231 0.251923 0.44926 0.55979ZM1.87003 14.8689C2.00887 14.6243 1.9351 14.3099 1.70287 14.1563C1.48343 14.0112 1.14256 14.0795 1.14256 14.2687C1.14256 14.3264 1.17464 14.3684 1.24695 14.4054C1.36871 14.4677 1.37754 14.5378 1.28175 14.681C1.18473 14.826 1.19256 14.9535 1.30384 15.0402C1.48319 15.1799 1.73707 15.103 1.87003 14.8689Z" fill="#FF37C7"/>
<path fill-rule="evenodd" clip-rule="evenodd" d="M7.17509 8.0162C6.86136 8.11204 6.55639 8.44275 6.46199 8.78951C6.4044 9.00105 6.43708 9.37214 6.52334 9.48675C6.6627 9.67184 6.79747 9.72061 7.16239 9.71807C7.87685 9.71311 8.49795 9.40834 8.57015 9.02734C8.62934 8.71503 8.35656 8.28221 7.98082 8.0922C7.78693 7.99419 7.37458 7.9553 7.17509 8.0162ZM8.01029 8.66577C8.12046 8.51006 8.07227 8.34178 7.88488 8.22796C7.52804 8.01124 6.9884 8.19058 6.9884 8.52587C6.9884 8.69277 7.26981 8.87487 7.52776 8.87487C7.69945 8.87487 7.9344 8.77304 8.01029 8.66577Z" fill="#FF37C7"/>
</svg>
